<svg xmlns="http://www.w3.org/2000/svg" version="1.1" xmlns:xlink="http://www.w3.org/1999/xlink" xmlns:svgjs="http://svgjs.dev/svgjs" width="2000" height="2258" viewBox="0 0 2000 2258"><g transform="matrix(1,0,0,1,0.7797333436453755,0.0006309380603397585)"><svg viewBox="0 0 248 280" data-background-color="#ffffff" preserveAspectRatio="xMidYMid meet" height="2258" width="2000" xmlns="http://www.w3.org/2000/svg" xmlns:xlink="http://www.w3.org/1999/xlink"><g id="tight-bounds" transform="matrix(1,0,0,1,-0.09668693461202338,0.0000782385549200626)"><svg viewBox="0 0 248.19337386922402 280" height="280" width="248.19337386922402"><g><svg viewBox="0 0 278.2696 313.9305727035831" height="280" width="248.19337386922402"><g><svg viewBox="0 0 278.2696 313.9305727035831" height="313.9305727035831" width="278.2696"><g id="textblocktransform"><svg viewBox="0 0 278.2696 313.9305727035831" height="313.9305727035831" width="278.2696" id="textblock"><g><svg viewBox="0 0 278.2696 278.2696" height="278.2696" width="278.2696"><g transform="matrix(1,0,0,1,55.837057376417846,56.02301998420319)"><svg viewBox="0 0 166.59548524716433 166.22356003159365" height="166.22356003159365" width="166.59548524716433"><g id="icon-0"><svg xmlns="http://www.w3.org/2000/svg" xmlns:xlink="http://www.w3.org/1999/xlink" version="1.1" x="0" y="0" viewBox="10.036 9.757 80.179 80" style="enable-background:new 0 0 100 100;" xml:space="preserve" height="166.22356003159365" width="166.59548524716433" class="icon-xg-0" data-fill-palette-color="accent" id="xg-0"><path d="M89.214 19.602H70.301V13.1c0-1.843-1.474-3.343-3.285-3.343H33.234c-1.812 0-3.285 1.5-3.285 3.343v6.502H11.036c-0.552 0-1 0.447-1 1v29.289c0 0.553 0.448 1 1 1h1.527v37.866c0 0.553 0.448 1 1 1h73.125c0.552 0 1-0.447 1-1V50.891h1.527c0.552 0 1-0.447 1-1V20.602C90.214 20.049 89.767 19.602 89.214 19.602zM31.949 13.1c0-0.74 0.577-1.343 1.285-1.343h33.781c0.708 0 1.285 0.603 1.285 1.343v6.502H31.949V13.1zM85.688 87.757H14.562V50.891h9.564v4.436c0 0.553 0.448 1 1 1h8.695c0.552 0 1-0.447 1-1v-4.436h30.606v4.436c0 0.553 0.448 1 1 1h8.695c0.552 0 1-0.447 1-1v-4.436h9.564V87.757zM26.126 54.326v-9.627h6.695v9.627H26.126zM67.428 54.326v-9.627h6.695v9.627H67.428zM88.214 48.891H76.124v-5.191c0-0.553-0.448-1-1-1h-8.695c-0.552 0-1 0.447-1 1v5.191H34.822v-5.191c0-0.553-0.448-1-1-1h-8.695c-0.552 0-1 0.447-1 1v5.191H12.036V21.602h76.179V48.891z" fill="#ea9937" data-fill-palette-color="accent"></path><path d="M70.457 78.492l-1.114 1.114V60.586c0-0.553-0.448-1-1-1s-1 0.447-1 1v19.021l-1.115-1.115c-0.391-0.391-1.023-0.391-1.414 0s-0.391 1.023 0 1.414l2.822 2.821c0.195 0.195 0.451 0.293 0.707 0.293s0.512-0.098 0.707-0.293l2.821-2.821c0.391-0.391 0.391-1.023 0-1.414S70.848 78.102 70.457 78.492z" fill="#ea9937" data-fill-palette-color="accent"></path><path d="M32.614 59.879c-0.375-0.375-1.039-0.375-1.414 0l-2.821 2.822c-0.391 0.391-0.391 1.023 0 1.414s1.024 0.391 1.414 0L30.907 63v19.02c0 0.553 0.448 1 1 1s1-0.447 1-1V63l1.115 1.115c0.195 0.195 0.451 0.293 0.707 0.293s0.512-0.098 0.707-0.293c0.391-0.391 0.391-1.023 0-1.414L32.614 59.879z" fill="#ea9937" data-fill-palette-color="accent"></path><path d="M52.604 59.482c-3.166-0.664-6.398-0.052-9.104 1.717-2.706 1.77-4.561 4.487-5.222 7.651-0.662 3.165-0.052 6.397 1.717 9.104 1.756 2.685 4.446 4.528 7.58 5.204 0.004 0.001 0.008 0.002 0.012 0.003 0.021 0.004 0.04 0.011 0.061 0.016 0.833 0.174 1.67 0.261 2.502 0.261 2.328 0 4.608-0.675 6.601-1.979 2.706-1.77 4.561-4.487 5.222-7.651 0.662-3.165 0.052-6.397-1.717-9.104C58.485 61.999 55.768 60.145 52.604 59.482zM58.493 77.335l-3.289-0.688c0.52-0.915 0.958-1.937 1.274-3.069l3.505 0.733C59.654 75.406 59.149 76.422 58.493 77.335zM39.898 70.109l3.505 0.733c-0.164 1.164-0.172 2.276-0.063 3.323l-3.289-0.688C39.816 72.378 39.761 71.244 39.898 70.109zM41.94 65.082l3.155 0.66c-0.534 0.984-0.994 2.094-1.329 3.338l-3.499-0.732C40.626 67.154 41.196 66.055 41.94 65.082zM55.09 71.448l-3.9-0.816 0.725-3.464 3.201 0.67C55.258 68.945 55.271 70.159 55.09 71.448zM52.283 65.406l0.725-3.465c0.489 0.78 1.232 2.161 1.725 3.977L52.283 65.406zM51.25 61.559l-0.728 3.479-2.455-0.514C49.246 63.053 50.491 62.076 51.25 61.559zM50.153 66.8l-0.725 3.464-3.88-0.812c0.352-1.255 0.844-2.361 1.419-3.319L50.153 66.8zM45.159 71.21l3.901 0.816-0.669 3.196-3.18-0.665C45.049 73.511 45.007 72.388 45.159 71.21zM48.023 76.983l-0.66 3.154c-0.568-0.898-1.23-2.151-1.699-3.647L48.023 76.983zM49.126 80.501l0.659-3.15 2.356 0.493C51.11 79.029 50.007 79.906 49.126 80.501zM50.153 75.59l0.669-3.196 3.893 0.814c-0.334 1.14-0.817 2.154-1.385 3.046L50.153 75.59zM56.853 71.817c0.191-1.274 0.214-2.475 0.118-3.591l3.157 0.66c0.292 1.19 0.374 2.425 0.224 3.663L56.853 71.817zM58.749 65.689c0.255 0.39 0.471 0.796 0.669 1.209l-2.722-0.569c-0.325-1.541-0.833-2.85-1.332-3.866C56.708 63.256 57.869 64.345 58.749 65.689zM44.485 62.706c1.34-0.876 2.833-1.404 4.377-1.594-0.861 0.73-1.845 1.724-2.756 3.002l-2.718-0.569C43.735 63.247 44.096 62.961 44.485 62.706zM41.501 76.969c-0.318-0.487-0.583-0.997-0.812-1.52l2.972 0.622c0.432 1.785 1.143 3.298 1.814 4.446C43.878 79.712 42.507 78.506 41.501 76.969zM55.765 79.952c-1.537 1.006-3.276 1.561-5.063 1.659 1.075-0.783 2.333-1.885 3.444-3.347l2.972 0.622C56.698 79.272 56.252 79.634 55.765 79.952z" fill="#ea9937" data-fill-palette-color="accent"></path></svg></g></svg></g><g id="text-0"><path d="M26.317 108.368l-14.704-5.112 2.231-6.418 17.848 6.205c-0.031 0.271-0.1 0.692-0.206 1.262-0.1 0.572-0.253 1.153-0.459 1.745v0c-0.374 1.076-0.983 1.823-1.827 2.242-0.846 0.425-1.807 0.451-2.883 0.077zM6.53 94.294l17.772 6.18-2.232 6.418-14.619-5.084c-1.082-0.376-1.823-0.994-2.223-1.852-0.402-0.852-0.416-1.816-0.042-2.892v0c0.206-0.591 0.447-1.142 0.723-1.653 0.27-0.513 0.477-0.885 0.621-1.117zM24.302 91.132l-3.902 11.222-5.181-1.801 4.446-12.789c0.353-0.103 0.772-0.141 1.256-0.113 0.484 0.027 0.981 0.13 1.491 0.306v0c0.931 0.324 1.542 0.758 1.832 1.304 0.284 0.543 0.303 1.167 0.058 1.871zM35.415 93.431l-4.388 12.619-5.228-1.818 4.935-14.195c0.342-0.071 0.764-0.098 1.266-0.079 0.503 0.013 1.026 0.113 1.566 0.302v0c0.906 0.315 1.501 0.744 1.785 1.287 0.29 0.545 0.311 1.173 0.064 1.884zM14.692 86.458l-4.315 12.411-5.191-1.805 4.876-14.025c0.317-0.08 0.72-0.113 1.209-0.098 0.484 0.006 0.982 0.098 1.491 0.275v0c0.938 0.326 1.558 0.764 1.86 1.313 0.303 0.55 0.326 1.192 0.07 1.929z" fill="#ea3c12" data-fill-palette-color="primary"></path><path d="M34.859 50.886v0c0.538 0.381 0.924 0.874 1.156 1.48 0.233 0.605 0.329 1.172 0.291 1.699v0c-0.85 0.313-1.706 0.743-2.568 1.292-0.867 0.545-1.673 1.342-2.416 2.392v0c-0.92 1.299-1.426 2.614-1.519 3.944-0.098 1.326 0.208 2.629 0.919 3.907 0.715 1.273 1.833 2.449 3.355 3.527v0c2.349 1.663 4.54 2.333 6.573 2.009 2.028-0.327 3.761-1.508 5.201-3.541v0c0.762-1.076 1.266-2.087 1.51-3.033 0.25-0.941 0.416-1.861 0.496-2.758v0c0.534-0.177 1.103-0.227 1.709-0.149 0.602 0.083 1.183 0.323 1.744 0.72v0c0.489 0.346 0.853 0.796 1.09 1.348 0.232 0.548 0.27 1.244 0.113 2.088v0c-0.086 0.641-0.316 1.461-0.69 2.462-0.374 1.001-0.996 2.115-1.866 3.344v0c-1.524 2.153-3.338 3.815-5.441 4.987-2.102 1.181-4.384 1.679-6.848 1.493-2.459-0.182-5.034-1.226-7.725-3.131v0c-2.55-1.805-4.342-3.834-5.377-6.085-1.031-2.256-1.385-4.568-1.064-6.936 0.312-2.366 1.206-4.591 2.681-6.673v0c1.024-1.446 2.073-2.576 3.147-3.391 1.078-0.82 2.096-1.312 3.053-1.475 0.966-0.165 1.791-0.005 2.476 0.48z" fill="#ea3c12" data-fill-palette-color="primary"></path><path d="M74.624 30.283v0c1.894 2.477 3.005 4.939 3.334 7.388 0.324 2.453-0.01 4.758-1.002 6.916-0.991 2.158-2.561 4.059-4.71 5.702v0c-2.117 1.618-4.347 2.623-6.689 3.013-2.348 0.395-4.655 0.108-6.921-0.859-2.266-0.968-4.346-2.69-6.239-5.167v0c-1.894-2.477-2.999-4.943-3.318-7.4-0.313-2.461 0.035-4.764 1.043-6.911 0.999-2.148 2.534-4.013 4.603-5.594v0c2.101-1.606 4.324-2.614 6.67-3.024 2.346-0.419 4.663-0.152 6.95 0.8 2.292 0.947 4.385 2.66 6.279 5.136zM68.94 34.628v0c-1.732-2.265-3.545-3.617-5.439-4.055-1.9-0.434-3.686-0.012-5.359 1.267v0c-1.593 1.218-2.438 2.799-2.536 4.744-0.098 1.945 0.727 4.06 2.475 6.347v0c1.768 2.313 3.591 3.678 5.469 4.094 1.88 0.408 3.643-0.018 5.289-1.276v0c1.646-1.258 2.519-2.848 2.618-4.768 0.09-1.922-0.749-4.04-2.517-6.353z" fill="#ea3c12" data-fill-palette-color="primary"></path><path d="M107.499 24.927v0c-0.231 0.363-0.58 0.723-1.045 1.079-0.465 0.356-1.056 0.651-1.771 0.885v0c-0.88 0.288-1.666 0.413-2.359 0.374-0.693-0.039-1.214-0.303-1.564-0.792v0c-1.821-2.369-3.349-4.339-4.586-5.911-1.241-1.563-2.256-2.927-3.044-4.091v0l-0.218 0.071c0.496 1.793 0.966 3.441 1.409 4.943 0.441 1.496 0.868 2.947 1.279 4.355 0.42 1.411 0.841 2.855 1.261 4.329 0.418 1.468 0.863 3.072 1.334 4.81v0c-0.313 0.201-0.713 0.444-1.201 0.73-0.494 0.288-1.011 0.52-1.549 0.697v0c-1.083 0.355-1.992 0.446-2.728 0.273-0.734-0.166-1.256-0.721-1.565-1.664v0c-0.205-0.627-0.483-1.57-0.833-2.829-0.347-1.253-0.735-2.703-1.162-4.351-0.426-1.641-0.874-3.373-1.345-5.195-0.469-1.816-0.932-3.613-1.388-5.392-0.454-1.772-0.868-3.42-1.242-4.945v0c0.116-0.417 0.462-0.922 1.038-1.518 0.574-0.602 1.462-1.1 2.665-1.493v0c1.336-0.438 2.46-0.568 3.374-0.391 0.905 0.173 1.699 0.67 2.381 1.491v0c0.76 0.887 1.597 1.923 2.512 3.11 0.906 1.182 1.811 2.382 2.715 3.6 0.906 1.224 1.736 2.312 2.489 3.265v0l0.218-0.072c-0.026-2.775-0.02-5.475 0.017-8.102 0.035-2.633 0.104-4.85 0.207-6.65v0c0.299-0.35 0.741-0.691 1.327-1.024 0.583-0.338 1.232-0.625 1.947-0.859v0c1.222-0.4 2.286-0.542 3.194-0.426 0.905 0.11 1.532 0.504 1.88 1.182v0c0.292 0.507 0.699 1.32 1.22 2.44 0.529 1.123 1.114 2.425 1.753 3.905 0.645 1.478 1.304 3.029 1.976 4.652 0.672 1.623 1.332 3.198 1.98 4.725 0.641 1.528 1.211 2.905 1.71 4.129 0.493 1.226 0.877 2.205 1.151 2.935v0c-0.348 0.394-0.734 0.735-1.159 1.021-0.433 0.282-1.02 0.545-1.761 0.787v0c-0.912 0.299-1.759 0.387-2.541 0.265-0.777-0.124-1.352-0.661-1.727-1.611v0c-0.842-2.185-1.635-4.263-2.379-6.234-0.736-1.967-1.396-3.77-1.982-5.407-0.586-1.638-1.099-3.033-1.54-4.185v0l-0.209 0.068c0.061 1.34 0.056 3.038-0.013 5.094-0.067 2.062-0.109 4.705-0.126 7.927z" fill="#ea3c12" data-fill-palette-color="primary"></path><path d="M150.122 21.185v0c-0.344 0.259-0.797 0.473-1.357 0.643-0.561 0.17-1.217 0.239-1.969 0.207v0c-0.925-0.039-1.705-0.198-2.34-0.478-0.635-0.28-1.03-0.71-1.186-1.29v0c-0.873-2.857-1.613-5.239-2.22-7.144-0.614-1.899-1.085-3.533-1.414-4.901v0l-0.23-0.009c-0.165 1.853-0.303 3.561-0.415 5.123-0.112 1.555-0.222 3.064-0.331 4.527-0.102 1.469-0.215 2.968-0.339 4.496-0.124 1.522-0.27 3.179-0.439 4.972v0c-0.363 0.078-0.824 0.165-1.381 0.262-0.564 0.096-1.129 0.133-1.695 0.109v0c-1.138-0.048-2.022-0.282-2.651-0.702-0.629-0.413-0.923-1.116-0.881-2.107v0c0.028-0.659 0.099-1.639 0.214-2.942 0.115-1.295 0.261-2.789 0.438-4.482 0.178-1.686 0.366-3.465 0.565-5.337 0.198-1.865 0.396-3.71 0.593-5.535 0.197-1.819 0.388-3.507 0.573-5.067v0c0.255-0.349 0.756-0.702 1.504-1.057 0.749-0.362 1.755-0.516 3.02-0.463v0c1.404 0.059 2.503 0.332 3.296 0.819 0.787 0.48 1.355 1.224 1.707 2.232v0c0.401 1.097 0.821 2.361 1.26 3.794 0.433 1.425 0.86 2.867 1.278 4.324 0.418 1.464 0.813 2.775 1.185 3.93v0l0.23 0.01c0.95-2.607 1.903-5.134 2.859-7.581 0.957-2.453 1.8-4.505 2.529-6.154v0c0.403-0.223 0.936-0.387 1.601-0.493 0.665-0.112 1.373-0.152 2.126-0.121v0c1.285 0.054 2.331 0.295 3.14 0.723 0.809 0.421 1.258 1.01 1.346 1.766v0c0.096 0.577 0.191 1.482 0.285 2.713 0.101 1.238 0.191 2.662 0.271 4.272 0.086 1.61 0.158 3.294 0.217 5.05 0.059 1.756 0.124 3.462 0.195 5.118 0.064 1.656 0.114 3.145 0.152 4.467 0.031 1.321 0.047 2.372 0.048 3.153v0c-0.464 0.247-0.945 0.43-1.444 0.549-0.505 0.112-1.147 0.152-1.925 0.119v0c-0.958-0.04-1.783-0.255-2.473-0.644-0.684-0.389-1.034-1.094-1.051-2.115v0c-0.022-2.341-0.035-4.565-0.04-6.672 0.002-2.1 0.016-4.02 0.043-5.759 0.026-1.739 0.036-3.226 0.027-4.459v0l-0.219-0.01c-0.414 1.276-1.014 2.864-1.801 4.765-0.787 1.907-1.754 4.367-2.901 7.379z" fill="#ea3c12" data-fill-palette-color="primary"></path><path d="M173.769 28.505l5.425-14.592 6.369 2.368-6.584 17.711c-0.271-0.037-0.69-0.114-1.257-0.233-0.569-0.112-1.148-0.277-1.735-0.495v0c-1.068-0.397-1.802-1.022-2.203-1.875-0.407-0.855-0.412-1.816-0.015-2.884zM188.261 9.022l-6.556 17.636-6.369-2.367 5.393-14.509c0.399-1.074 1.032-1.802 1.899-2.183 0.86-0.384 1.825-0.377 2.893 0.02v0c0.587 0.218 1.133 0.471 1.637 0.758 0.507 0.281 0.875 0.496 1.103 0.645zM191.044 26.857l-11.136-4.14 1.911-5.142 12.692 4.718c0.095 0.355 0.124 0.775 0.086 1.259-0.038 0.484-0.15 0.978-0.338 1.483v0c-0.344 0.924-0.791 1.525-1.342 1.804-0.549 0.272-1.173 0.278-1.873 0.018zM188.51 37.919l-12.523-4.655 1.929-5.189 14.087 5.237c0.064 0.344 0.081 0.766 0.052 1.266-0.024 0.503-0.135 1.023-0.335 1.56v0c-0.334 0.899-0.776 1.485-1.325 1.757-0.551 0.278-1.18 0.286-1.885 0.024zM195.922 17.349l-12.316-4.578 1.915-5.152 13.918 5.174c0.073 0.319 0.098 0.722 0.072 1.21-0.017 0.484-0.119 0.979-0.307 1.485v0c-0.346 0.93-0.797 1.541-1.352 1.832-0.556 0.291-1.199 0.3-1.93 0.029z" fill="#ea3c12" data-fill-palette-color="primary"></path><path d="M218.827 30.895l-4.58 6.182 2.312 1.713c1.183 0.876 2.341 1.316 3.475 1.319 1.143 0.001 2.097-0.515 2.863-1.548v0c0.769-1.038 1.004-2.088 0.703-3.148-0.301-1.06-1.16-2.116-2.579-3.166v0c-0.385-0.286-0.753-0.533-1.104-0.743-0.354-0.204-0.718-0.407-1.09-0.609zM213.877 43.468v0l-8.351-6.186 9.351-12.621c0.357-0.482 0.772-0.751 1.244-0.807 0.477-0.061 0.985-0.004 1.526 0.173v0c1.006 0.298 2.091 0.786 3.254 1.465 1.162 0.67 2.321 1.433 3.477 2.29v0c3.281 2.431 5.231 4.941 5.85 7.53 0.619 2.589 0.072 5.04-1.641 7.352v0c-1.091 1.472-2.453 2.477-4.087 3.016-1.633 0.548-3.372 0.64-5.217 0.277-1.843-0.354-3.646-1.184-5.406-2.489zM213.196 51.421l0.662-10.043 5.821 2.584c0 1.152 0.02 2.324 0.059 3.513 0.034 1.186 0.058 2.323 0.072 3.411 0.01 1.094 0.018 2.09 0.023 2.99 0.005 0.899-0.009 1.651-0.042 2.256v0c-0.755 0.56-1.569 0.836-2.441 0.828-0.873-0.008-1.657-0.27-2.353-0.786v0c-0.915-0.678-1.465-1.396-1.65-2.154-0.188-0.753-0.239-1.619-0.151-2.599zM201.856 42.236l5.223-7.049 5.604 4.152-6.959 9.394c-0.296-0.104-0.707-0.304-1.233-0.603-0.529-0.293-1.059-0.635-1.589-1.027v0c-1.087-0.805-1.709-1.577-1.866-2.316-0.167-0.737 0.107-1.587 0.82-2.551z" fill="#ea3c12" data-fill-palette-color="primary"></path><path d="M256.559 68.961v0c-0.528 0.395-1.116 0.61-1.764 0.645-0.648 0.035-1.216-0.047-1.706-0.246v0c-0.036-0.905-0.183-1.852-0.44-2.84-0.252-0.993-0.763-2.004-1.532-3.034v0c-0.953-1.275-2.049-2.161-3.286-2.659-1.232-0.501-2.565-0.611-4-0.328-1.431 0.288-2.894 0.991-4.388 2.108v0c-2.305 1.723-3.616 3.602-3.933 5.636-0.312 2.03 0.278 4.043 1.77 6.038v0c0.79 1.056 1.597 1.846 2.42 2.37 0.819 0.527 1.643 0.968 2.473 1.321v0c0.005 0.562-0.124 1.12-0.385 1.672-0.265 0.547-0.672 1.026-1.221 1.437v0c-0.48 0.359-1.019 0.567-1.617 0.623-0.593 0.052-1.267-0.126-2.022-0.534v0c-0.583-0.279-1.293-0.751-2.13-1.414-0.837-0.663-1.706-1.598-2.608-2.804v0c-1.58-2.113-2.604-4.35-3.072-6.711-0.478-2.363-0.249-4.688 0.685-6.976 0.929-2.284 2.714-4.413 5.355-6.387v0c2.502-1.871 4.983-2.953 7.443-3.245 2.464-0.287 4.773 0.087 6.928 1.121 2.156 1.025 3.997 2.559 5.525 4.602v0c1.061 1.419 1.814 2.765 2.258 4.039 0.448 1.278 0.603 2.398 0.465 3.358-0.14 0.97-0.546 1.706-1.218 2.208z" fill="#ea3c12" data-fill-palette-color="primary"></path><path d="M245.754 91.638l14.489-5.695 2.486 6.324-17.586 6.912c-0.153-0.226-0.375-0.59-0.665-1.091-0.296-0.499-0.559-1.04-0.789-1.623v0c-0.417-1.06-0.441-2.024-0.073-2.891 0.365-0.874 1.078-1.519 2.138-1.936zM269.936 89.434l-17.511 6.883-2.486-6.324 14.405-5.662c1.066-0.419 2.031-0.433 2.893-0.042 0.86 0.385 1.498 1.107 1.915 2.167v0c0.229 0.583 0.405 1.158 0.528 1.725 0.129 0.565 0.214 0.982 0.256 1.253zM258.507 103.406l-4.346-11.057 5.105-2.007 4.954 12.601c-0.201 0.308-0.494 0.609-0.88 0.904-0.385 0.295-0.829 0.541-1.331 0.738v0c-0.918 0.361-1.664 0.429-2.239 0.204-0.569-0.227-0.99-0.688-1.263-1.383zM248.577 108.899l-4.888-12.434 5.152-2.025 5.498 13.987c-0.213 0.277-0.516 0.572-0.909 0.883-0.39 0.318-0.852 0.582-1.385 0.792v0c-0.893 0.351-1.624 0.413-2.192 0.185-0.575-0.225-1-0.688-1.276-1.388zM268.844 100.696l-4.807-12.229 5.115-2.011 5.432 13.82c-0.188 0.267-0.473 0.554-0.853 0.861-0.372 0.311-0.809 0.565-1.311 0.762v0c-0.924 0.363-1.679 0.435-2.267 0.215-0.588-0.22-1.024-0.693-1.309-1.418z" fill="#ea3c12" data-fill-palette-color="primary"></path><path d="M11.897 179.444l14.842-5.174 2.26 6.483-18.022 6.281c-0.147-0.238-0.355-0.613-0.626-1.126-0.279-0.517-0.522-1.074-0.73-1.671v0c-0.379-1.088-0.366-2.063 0.039-2.924 0.403-0.867 1.149-1.49 2.237-1.869zM36.377 178.181l-17.937 6.252-2.259-6.482 14.767-5.148c1.082-0.377 2.05-0.351 2.905 0.078 0.853 0.422 1.469 1.178 1.848 2.266v0c0.208 0.598 0.367 1.184 0.476 1.76 0.101 0.572 0.167 0.996 0.2 1.274zM24.296 191.82l-3.947-11.322 5.227-1.822 4.5 12.908c-0.213 0.3-0.52 0.594-0.921 0.881-0.396 0.279-0.853 0.509-1.368 0.689v0c-0.944 0.329-1.699 0.367-2.267 0.113-0.566-0.247-0.974-0.729-1.224-1.447zM14.061 196.975l-4.44-12.738 5.274-1.838 4.993 14.323c-0.222 0.275-0.538 0.561-0.949 0.86-0.409 0.305-0.884 0.551-1.425 0.74v0c-0.918 0.32-1.662 0.353-2.229 0.1-0.566-0.247-0.974-0.729-1.224-1.447zM34.838 189.49l-4.364-12.521 5.227-1.822 4.933 14.153c-0.192 0.258-0.487 0.536-0.883 0.837-0.39 0.298-0.843 0.537-1.358 0.717v0c-0.944 0.329-1.709 0.37-2.296 0.123-0.578-0.243-0.998-0.739-1.259-1.487z" fill="#ea3c12" data-fill-palette-color="primary"></path><path d="M55.187 217.68v0c-0.544 0.385-1.144 0.586-1.802 0.603-0.654 0.022-1.225-0.075-1.713-0.292v0c-0.011-0.915-0.132-1.874-0.362-2.879-0.234-1.01-0.726-2.045-1.477-3.104v0c-0.928-1.31-2.011-2.233-3.248-2.769-1.232-0.54-2.574-0.683-4.027-0.429-1.457 0.248-2.952 0.916-4.484 2.002v0c-2.375 1.683-3.747 3.549-4.116 5.598-0.367 2.04 0.175 4.084 1.627 6.134v0c0.77 1.087 1.564 1.908 2.382 2.463 0.818 0.555 1.639 1.023 2.463 1.402v0c-0.01 0.562-0.152 1.116-0.426 1.662-0.28 0.55-0.706 1.026-1.277 1.431v0c-0.495 0.35-1.042 0.546-1.641 0.587-0.603 0.036-1.282-0.161-2.035-0.59v0c-0.58-0.3-1.283-0.797-2.111-1.493-0.824-0.69-1.675-1.655-2.552-2.894v0c-1.541-2.174-2.52-4.46-2.938-6.859-0.419-2.389-0.128-4.726 0.874-7.011 0.998-2.291 2.855-4.399 5.573-6.325v0c2.571-1.822 5.104-2.845 7.598-3.069 2.494-0.224 4.814 0.21 6.96 1.302 2.149 1.098 3.967 2.696 5.454 4.794v0c1.036 1.462 1.764 2.841 2.183 4.135 0.423 1.3 0.55 2.435 0.38 3.405-0.166 0.975-0.595 1.707-1.285 2.196z" fill="#ea3c12" data-fill-palette-color="primary"></path><path d="M77.789 248.615v0c-1.913 2.503-4.022 4.237-6.327 5.2-2.299 0.968-4.633 1.251-7.001 0.85-2.363-0.397-4.626-1.423-6.791-3.078v0c-2.143-1.638-3.717-3.545-4.72-5.721-1.003-2.176-1.337-4.498-1.002-6.966 0.341-2.464 1.468-4.948 3.381-7.452v0c1.913-2.503 4.028-4.233 6.343-5.188 2.315-0.956 4.65-1.229 7.005-0.822 2.355 0.408 4.58 1.413 6.675 3.015v0c2.117 1.618 3.689 3.516 4.717 5.693 1.022 2.173 1.376 4.502 1.062 6.987-0.314 2.485-1.428 4.979-3.342 7.482zM72.049 244.228v0c1.748-2.286 2.582-4.415 2.504-6.387-0.082-1.966-0.965-3.592-2.647-4.879v0c-1.614-1.234-3.382-1.642-5.303-1.223-1.921 0.418-3.766 1.784-5.534 4.096v0c-1.784 2.334-2.627 4.473-2.529 6.419 0.102 1.94 0.982 3.542 2.639 4.808v0c1.662 1.27 3.442 1.7 5.34 1.29 1.902-0.416 3.746-1.791 5.53-4.124z" fill="#ea3c12" data-fill-palette-color="primary"></path><path d="M104.818 266.255v0c-0.402 0.156-0.899 0.242-1.493 0.258-0.598 0.007-1.255-0.106-1.97-0.341v0c-0.893-0.292-1.61-0.66-2.152-1.104-0.54-0.45-0.806-0.975-0.798-1.576v0c-0.062-3.021-0.131-5.539-0.207-7.554-0.069-2.014-0.078-3.73-0.026-5.151v0l-0.219-0.071c-0.673 1.756-1.275 3.378-1.804 4.866-0.534 1.48-1.054 2.918-1.561 4.315-0.507 1.397-1.029 2.821-1.567 4.271-0.538 1.45-1.133 3.022-1.786 4.714v0c-0.371-0.023-0.841-0.065-1.41-0.125-0.575-0.062-1.135-0.183-1.68-0.361v0c-1.095-0.359-1.892-0.826-2.39-1.403-0.492-0.575-0.582-1.337-0.271-2.287v0c0.207-0.633 0.545-1.567 1.013-2.801 0.468-1.235 1.017-2.646 1.649-4.234 0.634-1.594 1.303-3.271 2.006-5.031 0.705-1.767 1.402-3.508 2.09-5.225 0.688-1.716 1.338-3.305 1.95-4.766v0c0.34-0.267 0.923-0.476 1.751-0.625 0.831-0.141 1.852-0.014 3.06 0.382v0c1.355 0.444 2.347 1.011 2.976 1.7 0.638 0.686 0.988 1.564 1.051 2.637v0c0.09 1.179 0.152 2.521 0.185 4.024 0.031 1.51 0.052 3.031 0.061 4.563 0.01 1.531 0.038 2.911 0.085 4.139v0l0.209 0.069c1.64-2.267 3.259-4.46 4.857-6.579 1.607-2.123 2.99-3.885 4.15-5.286v0c0.45-0.112 1.013-0.127 1.688-0.047 0.677 0.074 1.376 0.23 2.097 0.466v0c1.234 0.404 2.186 0.923 2.855 1.556 0.667 0.639 0.94 1.335 0.82 2.087v0c-0.06 0.59-0.213 1.497-0.46 2.72-0.242 1.232-0.542 2.64-0.901 4.227-0.358 1.586-0.75 3.242-1.175 4.967-0.419 1.727-0.824 3.403-1.215 5.027-0.392 1.624-0.751 3.084-1.077 4.379-0.326 1.295-0.6 2.324-0.822 3.085v0c-0.513 0.112-1.029 0.157-1.547 0.135-0.516-0.029-1.148-0.166-1.895-0.41v0c-0.924-0.303-1.669-0.736-2.235-1.3-0.557-0.568-0.707-1.35-0.451-2.346v0c0.622-2.285 1.222-4.447 1.799-6.487 0.573-2.049 1.11-3.912 1.611-5.592 0.503-1.686 0.919-3.127 1.248-4.323v0l-0.209-0.068c-0.753 1.12-1.771 2.497-3.056 4.13-1.287 1.639-2.898 3.765-4.834 6.376z" fill="#ea3c12" data-fill-palette-color="primary"></path><path d="M150.607 270.399v0c-0.321 0.287-0.757 0.542-1.308 0.766-0.558 0.217-1.212 0.341-1.965 0.373v0c-0.938 0.04-1.739-0.053-2.402-0.278-0.663-0.232-1.097-0.63-1.301-1.195v0c-1.119-2.806-2.068-5.14-2.847-7-0.772-1.861-1.384-3.465-1.835-4.813v0l-0.229 0.01c-0.014 1.881-0.007 3.611 0.02 5.19 0.02 1.573 0.038 3.102 0.055 4.588 0.016 1.486 0.027 3.003 0.033 4.549 0.006 1.547 0 3.227-0.016 5.042v0c-0.355 0.108-0.81 0.234-1.364 0.378-0.561 0.144-1.127 0.228-1.7 0.252v0c-1.151 0.049-2.062-0.109-2.73-0.474-0.662-0.365-1.015-1.047-1.057-2.046v0c-0.028-0.666-0.04-1.659-0.037-2.979 0.004-1.32 0.023-2.835 0.057-4.543 0.034-1.715 0.071-3.52 0.111-5.415 0.039-1.902 0.08-3.777 0.121-5.626 0.042-1.849 0.092-3.564 0.152-5.147v0c0.224-0.37 0.697-0.77 1.419-1.201 0.729-0.424 1.729-0.663 3-0.717v0c1.424-0.06 2.552 0.122 3.383 0.547 0.838 0.418 1.474 1.118 1.91 2.099v0c0.499 1.072 1.028 2.307 1.587 3.703 0.56 1.403 1.113 2.82 1.661 4.25 0.547 1.43 1.059 2.712 1.533 3.846v0l0.22-0.01c0.739-2.698 1.484-5.32 2.236-7.866 0.758-2.553 1.435-4.688 2.029-6.407v0c0.382-0.263 0.903-0.475 1.563-0.636 0.66-0.168 1.369-0.268 2.128-0.3v0c1.298-0.055 2.371 0.096 3.219 0.453 0.849 0.364 1.349 0.92 1.501 1.667v0c0.151 0.574 0.326 1.476 0.525 2.708 0.206 1.238 0.42 2.663 0.642 4.273 0.222 1.611 0.437 3.299 0.644 5.063 0.215 1.764 0.424 3.476 0.628 5.135 0.204 1.658 0.38 3.151 0.53 4.478 0.15 1.327 0.255 2.386 0.315 3.177v0c-0.441 0.285-0.909 0.509-1.401 0.669-0.494 0.154-1.133 0.248-1.919 0.282v0c-0.972 0.041-1.821-0.103-2.548-0.432-0.721-0.336-1.137-1.015-1.247-2.038v0c-0.22-2.358-0.418-4.593-0.595-6.705-0.183-2.119-0.335-4.053-0.456-5.802-0.121-1.755-0.238-3.25-0.35-4.485v0l-0.22 0.009c-0.311 1.313-0.781 2.96-1.41 4.94-0.629 1.987-1.391 4.543-2.285 7.668z" fill="#ea3c12" data-fill-palette-color="primary"></path><path d="M179.064 268.584l-5.481-14.731 6.434-2.394 6.655 17.888c-0.235 0.151-0.606 0.368-1.112 0.648-0.511 0.289-1.063 0.545-1.656 0.765v0c-1.08 0.402-2.055 0.409-2.924 0.022-0.875-0.385-1.514-1.118-1.916-2.198zM177.293 244.135l6.623 17.804-6.434 2.393-5.453-14.656c-0.4-1.074-0.394-2.043 0.017-2.906 0.405-0.861 1.147-1.493 2.227-1.895v0c0.593-0.221 1.176-0.391 1.75-0.513 0.569-0.112 0.993-0.188 1.27-0.227zM191.181 255.931l-11.239 4.181-1.93-5.188 12.812-4.767c0.304 0.207 0.605 0.507 0.9 0.902 0.287 0.391 0.526 0.842 0.717 1.354v0c0.348 0.937 0.402 1.691 0.16 2.264-0.235 0.571-0.709 0.989-1.42 1.254zM196.547 266.057l-12.643 4.703-1.948-5.235 14.217-5.289c0.279 0.216 0.572 0.526 0.879 0.931 0.313 0.402 0.57 0.872 0.769 1.409v0c0.339 0.912 0.388 1.654 0.147 2.227-0.235 0.571-0.709 0.989-1.421 1.254zM188.631 245.439l-12.427 4.624-1.931-5.188 14.048-5.227c0.261 0.187 0.546 0.475 0.855 0.866 0.306 0.384 0.555 0.831 0.745 1.343v0c0.348 0.937 0.405 1.701 0.171 2.293-0.231 0.583-0.718 1.013-1.461 1.289z" fill="#ea3c12" data-fill-palette-color="primary"></path><path d="M205.657 234.143l4.627 6.248 2.337-1.731c1.194-0.884 1.958-1.873 2.292-2.966 0.336-1.102 0.117-2.176-0.656-3.219v0c-0.777-1.049-1.721-1.585-2.832-1.608-1.111-0.023-2.384 0.497-3.819 1.559v0c-0.391 0.289-0.738 0.571-1.04 0.845-0.299 0.279-0.602 0.57-0.909 0.872zM216.352 242.624v0l-8.44 6.25-9.438-12.744c-0.361-0.487-0.498-0.97-0.412-1.448 0.08-0.474 0.286-0.946 0.618-1.415v0c0.585-0.889 1.375-1.793 2.368-2.711 0.99-0.924 2.072-1.82 3.244-2.688v0c3.308-2.45 6.303-3.594 8.985-3.433 2.681 0.162 4.888 1.412 6.62 3.751v0c1.098 1.483 1.67 3.095 1.715 4.835 0.041 1.735-0.382 3.441-1.27 5.119-0.883 1.673-2.213 3.168-3.99 4.484zM223.826 245.631l-9.501-3.595 4.204-4.867c1.116 0.343 2.253 0.669 3.412 0.981 1.153 0.315 2.259 0.627 3.318 0.937 1.055 0.305 2.018 0.587 2.888 0.845 0.875 0.264 1.599 0.503 2.172 0.717v0c0.32 0.891 0.348 1.757 0.084 2.598-0.268 0.836-0.755 1.516-1.461 2.04v0c-0.921 0.682-1.773 1.002-2.558 0.962-0.784-0.041-1.637-0.246-2.558-0.618zM211.616 253.877l-5.274-7.123 5.661-4.192 7.029 9.491c-0.185 0.253-0.5 0.59-0.943 1.01-0.44 0.425-0.927 0.836-1.463 1.232v0c-1.097 0.813-2.025 1.189-2.783 1.128-0.763-0.057-1.505-0.572-2.227-1.546z" fill="#ea3c12" data-fill-palette-color="primary"></path><path d="M236.752 198.906v0c0.533 0.399 0.909 0.909 1.127 1.53 0.222 0.615 0.304 1.189 0.247 1.72v0c-0.867 0.291-1.743 0.7-2.629 1.228-0.89 0.532-1.723 1.319-2.502 2.358v0c-0.962 1.285-1.508 2.599-1.639 3.941-0.136 1.338 0.14 2.659 0.827 3.964 0.683 1.31 1.777 2.528 3.281 3.654v0c2.33 1.745 4.527 2.478 6.591 2.2 2.054-0.276 3.834-1.42 5.339-3.43v0c0.798-1.067 1.336-2.074 1.614-3.023 0.278-0.949 0.471-1.874 0.579-2.775v0c0.538-0.163 1.109-0.198 1.712-0.103 0.609 0.098 1.193 0.357 1.754 0.776v0c0.485 0.363 0.839 0.824 1.062 1.382 0.219 0.563 0.24 1.269 0.062 2.118v0c-0.107 0.644-0.365 1.466-0.773 2.467-0.404 0.996-1.061 2.101-1.972 3.317v0c-1.597 2.133-3.473 3.766-5.627 4.9-2.145 1.132-4.459 1.572-6.941 1.319-2.486-0.247-5.063-1.368-7.73-3.364v0c-2.522-1.888-4.273-3.985-5.251-6.291-0.979-2.305-1.277-4.647-0.896-7.024 0.386-2.383 1.349-4.603 2.89-6.661v0c1.074-1.435 2.163-2.55 3.266-3.347 1.108-0.802 2.149-1.27 3.124-1.405 0.979-0.141 1.807 0.042 2.485 0.549z" fill="#ea3c12" data-fill-palette-color="primary"></path><path d="M259.883 196.91l-14.622-5.767 2.518-6.386 17.755 7.003c-0.044 0.276-0.131 0.696-0.261 1.261-0.126 0.573-0.305 1.154-0.537 1.743v0c-0.423 1.072-1.069 1.802-1.938 2.19-0.871 0.394-1.843 0.379-2.915-0.044zM240.51 181.89l17.671 6.97-2.519 6.386-14.547-5.738c-1.066-0.42-1.783-1.072-2.151-1.955-0.37-0.877-0.344-1.851 0.079-2.923v0c0.232-0.589 0.495-1.137 0.788-1.644 0.297-0.499 0.523-0.864 0.679-1.096zM258.566 179.441l-4.399 11.155-5.15-2.032 5.015-12.716c0.357-0.088 0.781-0.111 1.273-0.067 0.483 0.047 0.978 0.171 1.486 0.371v0c0.93 0.367 1.527 0.831 1.792 1.394 0.267 0.557 0.262 1.188-0.017 1.895zM269.685 182.215l-4.949 12.549-5.197-2.049 5.566-14.111c0.347-0.064 0.774-0.074 1.28-0.032 0.509 0.036 1.029 0.159 1.562 0.369v0c0.905 0.357 1.49 0.817 1.755 1.38 0.267 0.557 0.262 1.188-0.017 1.894zM249.058 174.326l-4.865 12.336-5.15-2.032 5.499-13.943c0.314-0.07 0.719-0.089 1.215-0.058 0.49 0.029 0.989 0.143 1.498 0.344v0c0.93 0.367 1.536 0.835 1.819 1.405 0.28 0.561 0.274 1.211-0.016 1.948z" fill="#ea3c12" data-fill-palette-color="primary"></path><path d="M3.28 141.38c0-5.924 4.802-10.726 10.726-10.726 5.924 0 10.726 4.802 10.726 10.726 0 5.924-4.802 10.726-10.726 10.726-5.924 0-10.726-4.802-10.726-10.726z" fill="#ea3c12" data-fill-palette-color="primary"></path><path d="M253.538 141.38c0-5.924 4.802-10.726 10.726-10.726 5.924 0 10.726 4.802 10.726 10.726 0 5.924-4.802 10.726-10.726 10.726-5.924 0-10.726-4.802-10.726-10.726z" fill="#ea3c12" data-fill-palette-color="primary"></path></g><g id="text-1"></g></svg></g><g transform="matrix(1,0,0,1,0,295.80226000000005)"><svg viewBox="0 0 278.2696 18.128312703583063" height="18.128312703583063" width="278.2696"><g transform="matrix(1,0,0,1,0,0)"><svg width="278.2696" viewBox="4.45 -32.9 659.9699999999999 43" height="18.128312703583063" data-palette-color="#ea9937"><path d="M7.25-17.45L21-17.45 21-14.15 7.25-14.15 7.25-17.45ZM15.25-14.15L15.25-14.15 16.85-16.65Q20.25-16.65 22.5-15.53 24.75-14.4 25.88-12.55 27-10.7 27-8.4L27-8.4Q27-3.85 23.73-1.65 20.45 0.55 14.4 0.55L14.4 0.55Q13.05 0.55 11.7 0.48 10.35 0.4 9.05 0.2 7.75 0 6.55-0.3L6.55-0.3Q4.45-0.9 4.45-2.6L4.45-2.6 4.45-28.2Q4.45-29 4.88-29.45 5.3-29.9 6.1-30.1L6.1-30.1Q7.8-30.6 9.73-30.78 11.65-30.95 13.85-30.95L13.85-30.95Q19.5-30.95 22.65-28.93 25.8-26.9 25.8-22.75L25.8-22.75Q25.8-20.65 24.78-18.88 23.75-17.1 21.48-16.03 19.2-14.95 15.4-14.95L15.4-14.95 14.95-17.45Q18.25-17.45 19.95-18.82 21.65-20.2 21.65-22.65L21.65-22.65Q21.65-25.15 19.68-26.38 17.7-27.6 13.85-27.6L13.85-27.6Q12.15-27.6 10.85-27.48 9.55-27.35 8.45-27.15L8.45-27.15 8.45-3.35Q9.65-3.1 11.23-2.95 12.8-2.8 14.4-2.8L14.4-2.8Q18.55-2.8 20.7-4.2 22.85-5.6 22.85-8.5L22.85-8.5Q22.85-11.1 20.93-12.63 19-14.15 15.25-14.15ZM33.7-8.45L33.7-8.45 33.7-13 37.7-13 37.7-8.65Q37.7-5.45 39.4-4.05 41.1-2.65 44.1-2.65L44.1-2.65Q46.1-2.65 47.5-3.08 48.9-3.5 49.7-3.95L49.7-3.95 49.7-13 53.7-13 53.7-4.1Q53.7-3.05 53.42-2.43 53.15-1.8 52.1-1.2L52.1-1.2Q51-0.55 48.95 0.05 46.9 0.65 44.05 0.65L44.05 0.65Q40.75 0.65 38.42-0.33 36.1-1.3 34.9-3.33 33.7-5.35 33.7-8.45ZM53.7-21.5L53.7-10.4 49.7-10.4 49.7-23Q49.95-23.1 50.47-23.23 51-23.35 51.55-23.35L51.55-23.35Q52.65-23.35 53.17-22.93 53.7-22.5 53.7-21.5L53.7-21.5ZM37.7-21.5L37.7-10.4 33.7-10.4 33.7-23Q33.95-23.1 34.47-23.23 35-23.35 35.6-23.35L35.6-23.35Q36.65-23.35 37.17-22.93 37.7-22.5 37.7-21.5L37.7-21.5ZM65.9-5.15L65.9-5.15Q65.05-6.75 63.85-9.47 62.65-12.2 61.37-15.58 60.1-18.95 58.95-22.45L58.95-22.45Q59.3-22.95 59.87-23.25 60.45-23.55 61.1-23.55L61.1-23.55Q61.95-23.55 62.5-23.1 63.05-22.65 63.4-21.6L63.4-21.6Q64.9-17.4 66.55-13.25 68.2-9.1 70.2-4.65L70.2-4.65 70.4-4.65Q71.45-6.75 72.6-9.9 73.75-13.05 74.8-16.55 75.85-20.05 76.55-23.15L76.55-23.15Q76.9-23.3 77.32-23.43 77.75-23.55 78.25-23.55L78.25-23.55Q79.1-23.55 79.65-23.13 80.2-22.7 80.2-21.85L80.2-21.85Q80.2-21.05 79.75-19.18 79.3-17.3 78.52-14.83 77.75-12.35 76.72-9.58 75.7-6.8 74.52-4.13 73.35-1.45 72.15 0.7L72.15 0.7Q69.85 4.95 67.95 7.23 66.05 9.5 64.45 9.5L64.45 9.5Q63.3 9.5 62.67 8.9 62.05 8.3 61.9 7.5L61.9 7.5Q63 6.55 64.37 4.98 65.75 3.4 67.02 1.58 68.3-0.25 69.1-1.9L69.1-1.9Q68.25-2.15 67.52-2.8 66.8-3.45 65.9-5.15ZM103.89 0.7L103.89 0.7Q99.19 0.7 96.62-1.15 94.04-3 94.04-6.5L94.04-6.5Q94.04-9.75 96.22-11.48 98.39-13.2 102.24-13.55L102.24-13.55 109.34-14.25 109.34-15.65Q109.34-18.15 107.84-19.3 106.34-20.45 103.79-20.45L103.79-20.45Q101.74-20.45 99.87-19.85 97.99-19.25 96.54-18.5L96.54-18.5Q96.14-18.85 95.82-19.33 95.49-19.8 95.49-20.3L95.49-20.3Q95.49-21.6 96.94-22.3L96.94-22.3Q98.29-23 100.07-23.38 101.84-23.75 103.84-23.75L103.84-23.75Q108.19-23.75 110.74-21.8 113.29-19.85 113.29-15.65L113.29-15.65 113.29-3.8Q113.29-2.7 112.87-2.13 112.44-1.55 111.59-1.05L111.59-1.05Q110.39-0.4 108.39 0.15 106.39 0.7 103.89 0.7ZM103.89-2.6L103.89-2.6Q105.99-2.6 107.37-3.03 108.74-3.45 109.34-3.85L109.34-3.85 109.34-11.1 103.14-10.45Q100.54-10.25 99.29-9.3 98.04-8.35 98.04-6.55L98.04-6.55Q98.04-4.7 99.52-3.65 100.99-2.6 103.89-2.6ZM140.59-15.25L140.59-15.25 140.59-10.15 136.59-10.15 136.59-15.05Q136.59-17.85 135.01-19.15 133.44-20.45 130.79-20.45L130.79-20.45Q128.79-20.45 127.24-19.95 125.69-19.45 124.59-18.8L124.59-18.8 124.59-10.15 120.59-10.15 120.59-18.6Q120.59-19.65 121.01-20.33 121.44-21 122.49-21.65L122.49-21.65Q123.79-22.4 125.94-23.08 128.09-23.75 130.79-23.75L130.79-23.75Q135.34-23.75 137.96-21.68 140.59-19.6 140.59-15.25ZM120.59-1.55L120.59-12.9 124.59-12.9 124.59-0.1Q124.34 0 123.84 0.13 123.34 0.25 122.74 0.25L122.74 0.25Q121.69 0.25 121.14-0.18 120.59-0.6 120.59-1.55L120.59-1.55ZM136.59-1.55L136.59-12.9 140.59-12.9 140.59-0.1Q140.34 0 139.81 0.13 139.29 0.25 138.74 0.25L138.74 0.25Q137.64 0.25 137.11-0.18 136.59-0.6 136.59-1.55L136.59-1.55ZM152.79-5.15L152.79-5.15Q151.94-6.75 150.74-9.47 149.54-12.2 148.26-15.58 146.99-18.95 145.84-22.45L145.84-22.45Q146.19-22.95 146.76-23.25 147.34-23.55 147.99-23.55L147.99-23.55Q148.84-23.55 149.39-23.1 149.94-22.65 150.29-21.6L150.29-21.6Q151.79-17.4 153.44-13.25 155.09-9.1 157.09-4.65L157.09-4.65 157.29-4.65Q158.34-6.75 159.49-9.9 160.64-13.05 161.69-16.55 162.74-20.05 163.44-23.15L163.44-23.15Q163.79-23.3 164.21-23.43 164.64-23.55 165.14-23.55L165.14-23.55Q165.99-23.55 166.54-23.13 167.09-22.7 167.09-21.85L167.09-21.85Q167.09-21.05 166.64-19.18 166.19-17.3 165.41-14.83 164.64-12.35 163.61-9.58 162.59-6.8 161.41-4.13 160.24-1.45 159.04 0.7L159.04 0.7Q156.74 4.95 154.84 7.23 152.94 9.5 151.34 9.5L151.34 9.5Q150.19 9.5 149.56 8.9 148.94 8.3 148.79 7.5L148.79 7.5Q149.89 6.55 151.26 4.98 152.64 3.4 153.91 1.58 155.19-0.25 155.99-1.9L155.99-1.9Q155.14-2.15 154.41-2.8 153.69-3.45 152.79-5.15ZM172.58-6.05L172.58-13.2 176.58-13.2 176.58-6.3Q176.58-4.3 177.73-3.48 178.88-2.65 180.88-2.65L180.88-2.65Q181.73-2.65 182.78-2.95 183.83-3.25 184.53-3.65L184.53-3.65Q184.83-3.35 185.08-2.9 185.33-2.45 185.33-1.85L185.33-1.85Q185.33-0.75 184.03-0.05 182.73 0.65 180.43 0.65L180.43 0.65Q176.93 0.65 174.76-0.9 172.58-2.45 172.58-6.05L172.58-6.05ZM183.73-19.3L174.63-19.3 174.63-22.6 184.78-22.6Q184.93-22.4 185.08-21.95 185.23-21.5 185.23-21L185.23-21Q185.23-20.2 184.83-19.75 184.43-19.3 183.73-19.3L183.73-19.3ZM176.58-28.35L176.58-11.7 172.58-11.7 172.58-29.8Q172.83-29.9 173.36-30.03 173.88-30.15 174.48-30.15L174.48-30.15Q175.53-30.15 176.06-29.73 176.58-29.3 176.58-28.35L176.58-28.35ZM211.18-14.65L211.18-9.95 207.18-9.95 207.18-14.55Q207.18-17.55 205.51-19 203.83-20.45 201.18-20.45L201.18-20.45Q199.23-20.45 197.56-19.7 195.88-18.95 194.73-17.9L194.73-17.9 193.98-21.15Q195.18-22 197.16-22.88 199.13-23.75 201.73-23.75L201.73-23.75Q205.88-23.75 208.53-21.5 211.18-19.25 211.18-14.65L211.18-14.65ZM191.23-1.55L191.23-13.2 195.23-13.2 195.23-0.1Q194.98 0 194.48 0.13 193.98 0.25 193.38 0.25L193.38 0.25Q192.33 0.25 191.78-0.18 191.23-0.6 191.23-1.55L191.23-1.55ZM207.18-1.55L207.18-13.15 211.18-13.1 211.18-0.1Q210.93 0 210.41 0.13 209.88 0.25 209.33 0.25L209.33 0.25Q208.23 0.25 207.71-0.18 207.18-0.6 207.18-1.55L207.18-1.55ZM195.23-30.95L195.23-11.25 191.23-11.25 191.23-32.4Q191.48-32.5 192.01-32.63 192.53-32.75 193.13-32.75L193.13-32.75Q194.18-32.75 194.71-32.33 195.23-31.9 195.23-30.95L195.23-30.95ZM218.33-30.4L218.33-30.4Q218.33-31.45 219.08-32.18 219.83-32.9 220.93-32.9L220.93-32.9Q222.08-32.9 222.78-32.18 223.48-31.45 223.48-30.4L223.48-30.4Q223.48-29.35 222.78-28.63 222.08-27.9 220.93-27.9L220.93-27.9Q219.83-27.9 219.08-28.63 218.33-29.35 218.33-30.4ZM218.93-1.55L218.93-13.2 222.93-13.2 222.93-0.1Q222.68 0 222.18 0.13 221.68 0.25 221.08 0.25L221.08 0.25Q220.03 0.25 219.48-0.18 218.93-0.6 218.93-1.55L218.93-1.55ZM222.93-21.5L222.93-11.25 218.93-11.25 218.93-23Q219.18-23.1 219.7-23.23 220.23-23.35 220.83-23.35L220.83-23.35Q221.88-23.35 222.4-22.93 222.93-22.5 222.93-21.5L222.93-21.5ZM250.73-15.25L250.73-15.25 250.73-10.15 246.73-10.15 246.73-15.05Q246.73-17.85 245.15-19.15 243.58-20.45 240.93-20.45L240.93-20.45Q238.93-20.45 237.38-19.95 235.83-19.45 234.73-18.8L234.73-18.8 234.73-10.15 230.73-10.15 230.73-18.6Q230.73-19.65 231.15-20.33 231.58-21 232.63-21.65L232.63-21.65Q233.93-22.4 236.08-23.08 238.23-23.75 240.93-23.75L240.93-23.75Q245.48-23.75 248.1-21.68 250.73-19.6 250.73-15.25ZM230.73-1.55L230.73-12.9 234.73-12.9 234.73-0.1Q234.48 0 233.98 0.13 233.48 0.25 232.88 0.25L232.88 0.25Q231.83 0.25 231.28-0.18 230.73-0.6 230.73-1.55L230.73-1.55ZM246.73-1.55L246.73-12.9 250.73-12.9 250.73-0.1Q250.48 0 249.95 0.13 249.43 0.25 248.88 0.25L248.88 0.25Q247.78 0.25 247.25-0.18 246.73-0.6 246.73-1.55L246.73-1.55ZM267.82-0.7L267.82-0.7Q264.92-0.7 262.47-1.83 260.02-2.95 258.52-5.5 257.02-8.05 257.02-12.25L257.02-12.25Q257.02-16.05 258.5-18.6 259.97-21.15 262.57-22.45 265.17-23.75 268.52-23.75L268.52-23.75Q270.82-23.75 272.75-23.18 274.67-22.6 275.97-21.75L275.97-21.75Q276.72-21.25 277.2-20.63 277.67-20 277.67-19.1L277.67-19.1 277.67-3.65 273.67-3.65 273.67-19.05Q272.82-19.6 271.55-20.03 270.27-20.45 268.52-20.45L268.52-20.45Q265.17-20.45 263.12-18.4 261.07-16.35 261.07-12.3L261.07-12.3Q261.07-7.8 263.15-5.9 265.22-4 268.27-4L268.27-4Q270.47-4 271.82-4.75 273.17-5.5 273.97-6.4L273.97-6.4 274.17-2.85Q273.42-2.05 271.8-1.38 270.17-0.7 267.82-0.7ZM273.67 0.75L273.67 0.75 273.67-4.5 277.67-4.5 277.67 1Q277.67 4.3 276.25 6.3 274.82 8.3 272.35 9.2 269.87 10.1 266.77 10.1L266.77 10.1Q264.27 10.1 262.47 9.55 260.67 9 260.02 8.65L260.02 8.65Q258.52 7.8 258.52 6.5L258.52 6.5Q258.52 5.8 258.85 5.33 259.17 4.85 259.67 4.6L259.67 4.6Q260.72 5.4 262.65 6.08 264.57 6.75 266.77 6.75L266.77 6.75Q270.12 6.75 271.9 5.3 273.67 3.85 273.67 0.75ZM316.52-11.55L316.52-11.55Q316.52-7.85 315.12-5.1 313.72-2.35 311.17-0.85 308.62 0.65 305.17 0.65L305.17 0.65Q301.72 0.65 299.14-0.85 296.57-2.35 295.17-5.1 293.77-7.85 293.77-11.55L293.77-11.55Q293.77-15.3 295.19-18.03 296.62-20.75 299.19-22.25 301.77-23.75 305.17-23.75L305.17-23.75Q308.57-23.75 311.12-22.25 313.67-20.75 315.09-18.03 316.52-15.3 316.52-11.55ZM305.17-20.45L305.17-20.45Q301.82-20.45 299.84-18.07 297.87-15.7 297.87-11.55L297.87-11.55Q297.87-7.35 299.79-5 301.72-2.65 305.17-2.65L305.17-2.65Q308.57-2.65 310.49-5.03 312.42-7.4 312.42-11.55L312.42-11.55Q312.42-15.7 310.49-18.07 308.57-20.45 305.17-20.45ZM326.72-18.8L326.72-18.8 326.72-10.9 322.72-10.9 322.72-18.5Q322.72-19.65 323.14-20.33 323.57-21 324.57-21.65L324.57-21.65Q325.87-22.5 328.12-23.13 330.37-23.75 333.12-23.75L333.12-23.75Q337.12-23.75 337.12-21.75L337.12-21.75Q337.12-21.25 336.97-20.83 336.82-20.4 336.57-20.1L336.57-20.1Q336.07-20.2 335.27-20.3 334.47-20.4 333.67-20.4L333.67-20.4Q331.37-20.4 329.62-19.93 327.87-19.45 326.72-18.8ZM322.72-1.55L322.72-13.2 326.72-12.6 326.72-0.1Q326.47 0 325.97 0.13 325.47 0.25 324.87 0.25L324.87 0.25Q323.82 0.25 323.27-0.18 322.72-0.6 322.72-1.55L322.72-1.55ZM360.91-2.75L360.91-2.75Q364.26-2.75 365.99-4.28 367.71-5.8 367.71-8.2L367.71-8.2Q367.71-10.25 366.39-11.6 365.06-12.95 362.21-13.75L362.21-13.75 357.86-15.05Q355.76-15.7 354.21-16.73 352.66-17.75 351.84-19.28 351.01-20.8 351.01-22.85L351.01-22.85Q351.01-26.7 353.81-28.88 356.61-31.05 361.26-31.05L361.26-31.05Q363.96-31.05 366.09-30.48 368.21-29.9 369.44-29 370.66-28.1 370.66-27.1L370.66-27.1Q370.66-26.45 370.31-25.93 369.96-25.4 369.41-25.1L369.41-25.1Q368.16-26.1 366.04-26.85 363.91-27.6 361.41-27.6L361.41-27.6Q358.51-27.6 356.81-26.33 355.11-25.05 355.11-22.85L355.11-22.85Q355.11-21.1 356.34-20 357.56-18.9 360.31-18.1L360.31-18.1 363.36-17.2Q367.31-16.1 369.59-14 371.86-11.9 371.86-8.2L371.86-8.2Q371.86-4.25 368.99-1.8 366.11 0.65 360.91 0.65L360.91 0.65Q357.86 0.65 355.59-0.03 353.31-0.7 352.04-1.73 350.76-2.75 350.76-3.75L350.76-3.75Q350.76-4.6 351.29-5.18 351.81-5.75 352.51-6L352.51-6Q353.66-4.9 355.76-3.83 357.86-2.75 360.91-2.75ZM396.21-11.35L379.41-9 379.21-12.15 394.31-14.2Q394.11-16.95 392.41-18.73 390.71-20.5 387.71-20.5L387.71-20.5Q384.61-20.5 382.58-18.28 380.56-16.05 380.56-11.9L380.56-11.9 380.56-10.8Q380.91-6.8 383.18-4.73 385.46-2.65 389.41-2.65L389.41-2.65Q391.51-2.65 393.21-3.35 394.91-4.05 395.91-4.85L395.91-4.85Q396.46-4.5 396.78-4.03 397.11-3.55 397.11-2.95L397.11-2.95Q397.11-2 396.03-1.18 394.96-0.35 393.18 0.15 391.41 0.65 389.21 0.65L389.21 0.65Q385.36 0.65 382.53-0.75 379.71-2.15 378.18-4.93 376.66-7.7 376.66-11.7L376.66-11.7Q376.66-14.55 377.48-16.78 378.31-19 379.78-20.55 381.26-22.1 383.31-22.93 385.36-23.75 387.76-23.75L387.76-23.75Q390.81-23.75 393.13-22.45 395.46-21.15 396.78-18.82 398.11-16.5 398.11-13.5L398.11-13.5Q398.11-12.4 397.61-11.93 397.11-11.45 396.21-11.35L396.21-11.35ZM404.31-1.55L404.31-13.2 408.31-12.6 408.31-0.1Q408.06 0 407.56 0.13 407.06 0.25 406.46 0.25L406.46 0.25Q405.41 0.25 404.86-0.18 404.31-0.6 404.31-1.55L404.31-1.55ZM408.31-30.95L408.31-10.7 404.31-11.25 404.31-32.4Q404.56-32.5 405.08-32.63 405.61-32.75 406.16-32.75L406.16-32.75Q407.26-32.75 407.78-32.33 408.31-31.9 408.31-30.95L408.31-30.95ZM416.6-1.55L416.6-13.2 420.6-12.6 420.6-0.1Q420.35 0 419.85 0.13 419.35 0.25 418.75 0.25L418.75 0.25Q417.7 0.25 417.15-0.18 416.6-0.6 416.6-1.55L416.6-1.55ZM420.6-30.95L420.6-10.7 416.6-11.25 416.6-32.4Q416.85-32.5 417.38-32.63 417.9-32.75 418.45-32.75L418.45-32.75Q419.55-32.75 420.08-32.33 420.6-31.9 420.6-30.95L420.6-30.95ZM439.2-2.2L439.2-18.3 443.25-18.3 443.25-0.4Q443.05-0.35 442.5-0.18 441.95 0 441.4 0L441.4 0Q440.4 0 439.8-0.63 439.2-1.25 439.2-2.2L439.2-2.2ZM443.25-30L443.25-12.4 439.2-12.45 439.2-28.2Q439.2-29.2 439.8-29.8 440.4-30.4 441.4-30.4L441.4-30.4Q441.95-30.4 442.5-30.25 443.05-30.1 443.25-30L443.25-30ZM455.35-13.9L441.4-13.9 441.4-17.3 456.45-17.3Q456.6-17.1 456.75-16.65 456.9-16.2 456.9-15.7L456.9-15.7Q456.9-14.9 456.5-14.4 456.1-13.9 455.35-13.9L455.35-13.9ZM457.15 0L441.4 0 441.4-3.4 458.25-3.4Q458.4-3.2 458.55-2.78 458.7-2.35 458.7-1.8L458.7-1.8Q458.7-1 458.3-0.5 457.9 0 457.15 0L457.15 0ZM456.9-26.95L441.4-26.95 441.4-30.4 458-30.4Q458.15-30.2 458.3-29.75 458.45-29.3 458.45-28.8L458.45-28.8Q458.45-28 458.05-27.48 457.65-26.95 456.9-26.95L456.9-26.95ZM482.35-23.55L482.35-23.55Q483.2-23.55 483.72-23.1 484.25-22.65 484.25-21.8L484.25-21.8Q484.25-21.15 483.7-19.35 483.15-17.55 482.25-15.05 481.35-12.55 480.27-9.83 479.2-7.1 478.07-4.58 476.95-2.05 476-0.2L476-0.2Q475.75 0 475.12 0.15 474.5 0.3 473.8 0.3L473.8 0.3Q472.95 0.3 472.3 0.03 471.65-0.25 471.4-0.75L471.4-0.75Q470.85-1.75 469.97-3.68 469.1-5.6 468.1-8.05 467.1-10.5 466.07-13.13 465.05-15.75 464.2-18.18 463.35-20.6 462.8-22.45L462.8-22.45Q463.15-22.95 463.75-23.25 464.35-23.55 464.95-23.55L464.95-23.55Q465.85-23.55 466.35-23.1 466.85-22.65 467.2-21.6L467.2-21.6 470.3-12.65Q470.7-11.5 471.35-9.8 472-8.1 472.65-6.4 473.3-4.7 473.7-3.55L473.7-3.55 473.9-3.55Q475.9-8.6 477.65-13.53 479.4-18.45 480.65-23.15L480.65-23.15Q481.3-23.55 482.35-23.55ZM508.04-11.35L491.24-9 491.04-12.15 506.14-14.2Q505.94-16.95 504.24-18.73 502.54-20.5 499.54-20.5L499.54-20.5Q496.44-20.5 494.42-18.28 492.39-16.05 492.39-11.9L492.39-11.9 492.39-10.8Q492.74-6.8 495.02-4.73 497.29-2.65 501.24-2.65L501.24-2.65Q503.34-2.65 505.04-3.35 506.74-4.05 507.74-4.85L507.74-4.85Q508.29-4.5 508.62-4.03 508.94-3.55 508.94-2.95L508.94-2.95Q508.94-2 507.87-1.18 506.79-0.35 505.02 0.15 503.24 0.65 501.04 0.65L501.04 0.65Q497.19 0.65 494.37-0.75 491.54-2.15 490.02-4.93 488.49-7.7 488.49-11.7L488.49-11.7Q488.49-14.55 489.32-16.78 490.14-19 491.62-20.55 493.09-22.1 495.14-22.93 497.19-23.75 499.59-23.75L499.59-23.75Q502.64-23.75 504.97-22.45 507.29-21.15 508.62-18.82 509.94-16.5 509.94-13.5L509.94-13.5Q509.94-12.4 509.44-11.93 508.94-11.45 508.04-11.35L508.04-11.35ZM519.74-18.8L519.74-18.8 519.74-10.9 515.74-10.9 515.74-18.5Q515.74-19.65 516.17-20.33 516.59-21 517.59-21.65L517.59-21.65Q518.89-22.5 521.14-23.13 523.39-23.75 526.14-23.75L526.14-23.75Q530.14-23.75 530.14-21.75L530.14-21.75Q530.14-21.25 529.99-20.83 529.84-20.4 529.59-20.1L529.59-20.1Q529.09-20.2 528.29-20.3 527.49-20.4 526.69-20.4L526.69-20.4Q524.39-20.4 522.64-19.93 520.89-19.45 519.74-18.8ZM515.74-1.55L515.74-13.2 519.74-12.6 519.74-0.1Q519.49 0 518.99 0.13 518.49 0.25 517.89 0.25L517.89 0.25Q516.84 0.25 516.29-0.18 515.74-0.6 515.74-1.55L515.74-1.55ZM539.54-5.15L539.54-5.15Q538.69-6.75 537.49-9.47 536.29-12.2 535.01-15.58 533.74-18.95 532.59-22.45L532.59-22.45Q532.94-22.95 533.51-23.25 534.09-23.55 534.74-23.55L534.74-23.55Q535.59-23.55 536.14-23.1 536.69-22.65 537.04-21.6L537.04-21.6Q538.54-17.4 540.19-13.25 541.84-9.1 543.84-4.65L543.84-4.65 544.04-4.65Q545.09-6.75 546.24-9.9 547.39-13.05 548.44-16.55 549.49-20.05 550.19-23.15L550.19-23.15Q550.54-23.3 550.96-23.43 551.39-23.55 551.89-23.55L551.89-23.55Q552.74-23.55 553.29-23.13 553.84-22.7 553.84-21.85L553.84-21.85Q553.84-21.05 553.39-19.18 552.94-17.3 552.16-14.83 551.39-12.35 550.36-9.58 549.34-6.8 548.16-4.13 546.99-1.45 545.79 0.7L545.79 0.7Q543.49 4.95 541.59 7.23 539.69 9.5 538.09 9.5L538.09 9.5Q536.94 9.5 536.31 8.9 535.69 8.3 535.54 7.5L535.54 7.5Q536.64 6.55 538.01 4.98 539.39 3.4 540.66 1.58 541.94-0.25 542.74-1.9L542.74-1.9Q541.89-2.15 541.16-2.8 540.44-3.45 539.54-5.15ZM559.33-6.05L559.33-13.2 563.33-13.2 563.33-6.3Q563.33-4.3 564.49-3.48 565.63-2.65 567.63-2.65L567.63-2.65Q568.49-2.65 569.53-2.95 570.58-3.25 571.28-3.65L571.28-3.65Q571.58-3.35 571.83-2.9 572.08-2.45 572.08-1.85L572.08-1.85Q572.08-0.75 570.78-0.05 569.49 0.65 567.18 0.65L567.18 0.65Q563.68 0.65 561.51-0.9 559.33-2.45 559.33-6.05L559.33-6.05ZM570.49-19.3L561.38-19.3 561.38-22.6 571.53-22.6Q571.68-22.4 571.83-21.95 571.99-21.5 571.99-21L571.99-21Q571.99-20.2 571.58-19.75 571.18-19.3 570.49-19.3L570.49-19.3ZM563.33-28.35L563.33-11.7 559.33-11.7 559.33-29.8Q559.58-29.9 560.11-30.03 560.63-30.15 561.24-30.15L561.24-30.15Q562.28-30.15 562.81-29.73 563.33-29.3 563.33-28.35L563.33-28.35ZM597.93-14.65L597.93-9.95 593.93-9.95 593.93-14.55Q593.93-17.55 592.26-19 590.58-20.45 587.93-20.45L587.93-20.45Q585.98-20.45 584.31-19.7 582.63-18.95 581.48-17.9L581.48-17.9 580.73-21.15Q581.93-22 583.91-22.88 585.88-23.75 588.48-23.75L588.48-23.75Q592.63-23.75 595.28-21.5 597.93-19.25 597.93-14.65L597.93-14.65ZM577.98-1.55L577.98-13.2 581.98-13.2 581.98-0.1Q581.73 0 581.23 0.13 580.73 0.25 580.13 0.25L580.13 0.25Q579.08 0.25 578.53-0.18 577.98-0.6 577.98-1.55L577.98-1.55ZM593.93-1.55L593.93-13.15 597.93-13.1 597.93-0.1Q597.68 0 597.16 0.13 596.63 0.25 596.08 0.25L596.08 0.25Q594.98 0.25 594.46-0.18 593.93-0.6 593.93-1.55L593.93-1.55ZM581.98-30.95L581.98-11.25 577.98-11.25 577.98-32.4Q578.23-32.5 578.76-32.63 579.28-32.75 579.88-32.75L579.88-32.75Q580.93-32.75 581.46-32.33 581.98-31.9 581.98-30.95L581.98-30.95ZM605.08-30.4L605.08-30.4Q605.08-31.45 605.83-32.18 606.58-32.9 607.68-32.9L607.68-32.9Q608.83-32.9 609.53-32.18 610.23-31.45 610.23-30.4L610.23-30.4Q610.23-29.35 609.53-28.63 608.83-27.9 607.68-27.9L607.68-27.9Q606.58-27.9 605.83-28.63 605.08-29.35 605.08-30.4ZM605.68-1.55L605.68-13.2 609.68-13.2 609.68-0.1Q609.43 0 608.93 0.13 608.43 0.25 607.83 0.25L607.83 0.25Q606.78 0.25 606.23-0.18 605.68-0.6 605.68-1.55L605.68-1.55ZM609.68-21.5L609.68-11.25 605.68-11.25 605.68-23Q605.93-23.1 606.45-23.23 606.98-23.35 607.58-23.35L607.58-23.35Q608.63-23.35 609.15-22.93 609.68-22.5 609.68-21.5L609.68-21.5ZM637.48-15.25L637.48-15.25 637.48-10.15 633.48-10.15 633.48-15.05Q633.48-17.85 631.9-19.15 630.33-20.45 627.68-20.45L627.68-20.45Q625.68-20.45 624.13-19.95 622.58-19.45 621.48-18.8L621.48-18.8 621.48-10.15 617.48-10.15 617.48-18.6Q617.48-19.65 617.9-20.33 618.33-21 619.38-21.65L619.38-21.65Q620.68-22.4 622.83-23.08 624.98-23.75 627.68-23.75L627.68-23.75Q632.23-23.75 634.85-21.68 637.48-19.6 637.48-15.25ZM617.48-1.55L617.48-12.9 621.48-12.9 621.48-0.1Q621.23 0 620.73 0.13 620.23 0.25 619.63 0.25L619.63 0.25Q618.58 0.25 618.03-0.18 617.48-0.6 617.48-1.55L617.48-1.55ZM633.48-1.55L633.48-12.9 637.48-12.9 637.48-0.1Q637.23 0 636.7 0.13 636.18 0.25 635.63 0.25L635.63 0.25Q634.53 0.25 634-0.18 633.48-0.6 633.48-1.55L633.48-1.55ZM654.57-0.7L654.57-0.7Q651.67-0.7 649.22-1.83 646.77-2.95 645.27-5.5 643.77-8.05 643.77-12.25L643.77-12.25Q643.77-16.05 645.25-18.6 646.72-21.15 649.32-22.45 651.92-23.75 655.27-23.75L655.27-23.75Q657.57-23.75 659.5-23.18 661.42-22.6 662.72-21.75L662.72-21.75Q663.47-21.25 663.95-20.63 664.42-20 664.42-19.1L664.42-19.1 664.42-3.65 660.42-3.65 660.42-19.05Q659.57-19.6 658.3-20.03 657.02-20.45 655.27-20.45L655.27-20.45Q651.92-20.45 649.87-18.4 647.82-16.35 647.82-12.3L647.82-12.3Q647.82-7.8 649.9-5.9 651.97-4 655.02-4L655.02-4Q657.22-4 658.57-4.75 659.92-5.5 660.72-6.4L660.72-6.4 660.92-2.85Q660.17-2.05 658.55-1.38 656.92-0.7 654.57-0.7ZM660.42 0.75L660.42 0.75 660.42-4.5 664.42-4.5 664.42 1Q664.42 4.3 663 6.3 661.57 8.3 659.1 9.2 656.62 10.1 653.52 10.1L653.52 10.1Q651.02 10.1 649.22 9.55 647.42 9 646.77 8.65L646.77 8.65Q645.27 7.8 645.27 6.5L645.27 6.5Q645.27 5.8 645.6 5.33 645.92 4.85 646.42 4.6L646.42 4.6Q647.47 5.4 649.4 6.08 651.32 6.75 653.52 6.75L653.52 6.75Q656.87 6.75 658.65 5.3 660.42 3.85 660.42 0.75Z" opacity="1" transform="matrix(1,0,0,1,0,0)" fill="#ea9937" class="slogan-text-1" data-fill-palette-color="secondary" id="text-1"></path></svg></g></svg></g></svg></g></svg></g><g></g></svg></g><defs></defs></svg><rect width="248.19337386922402" height="280" fill="none" stroke="none" visibility="hidden"></rect></g></svg></g></svg>