<svg xmlns="http://www.w3.org/2000/svg" version="1.1" xmlns:xlink="http://www.w3.org/1999/xlink" xmlns:svgjs="http://svgjs.dev/svgjs" width="2000" height="484" viewBox="0 0 2000 484"><g transform="matrix(1,0,0,1,-1.2116518478862872,0.17704384620813585)"><svg viewBox="0 0 396 96" data-background-color="#ffffff" preserveAspectRatio="xMidYMid meet" height="484" width="2000" xmlns="http://www.w3.org/2000/svg" xmlns:xlink="http://www.w3.org/1999/xlink"><g id="tight-bounds" transform="matrix(1,0,0,1,0.2400929341185929,-0.035116134785084796)"><svg viewBox="0 0 395.52 96.07023226957018" height="96.07023226957018" width="395.52"><g><svg viewBox="0 0 395.52 96.07023226957018" height="96.07023226957018" width="395.52"><g><svg viewBox="0 0 395.52 96.07023226957018" height="96.07023226957018" width="395.52"><g id="textblocktransform"><svg viewBox="0 0 395.52 96.07023226957018" height="96.07023226957018" width="395.52" id="textblock"><g><svg viewBox="0 0 395.52 96.07023226957018" height="96.07023226957018" width="395.52"><g transform="matrix(1,0,0,1,0,0)"><svg width="395.52" viewBox="-0.000021083612691097375 -0.000009999999996179731 168.46010006321615 40.91830999999999" height="96.07023226957018" data-palette-color="#0b3680"><g class="wordmark-text-0" data-fill-palette-color="primary" id="text-0"><path d="M5.714 8.698v0c2.214-0.455 4.643-1.005 7.287-1.65 2.651-0.647 5.243-1.231 7.776-1.752v0c0.407 1.155 0.841 2.206 1.302 3.153 0.459 0.94 0.911 1.916 1.357 2.927v0c-0.13 0.197-0.387 0.335-0.773 0.414v0c-0.418 0.086-0.666 0.021-0.744-0.195v0c-0.9-1.796-1.869-2.852-2.908-3.169-1.04-0.324-2.183-0.358-3.43-0.102v0l-4.056 0.834c-0.189 0.039-0.541 0.118-1.053 0.237-0.505 0.124-0.977 0.265-1.414 0.423-0.437 0.158-0.672 0.322-0.706 0.492v0c-0.032 0.34-0.002 0.769 0.092 1.288 0.086 0.52 0.185 1.051 0.296 1.593v0c0.047 0.229 0.083 0.405 0.109 0.529v0l1.804 8.776c0.025 0.124 0.251 0.159 0.675 0.107 0.425-0.053 0.895-0.133 1.411-0.239v0l2.458-0.505c1.123-0.231 1.992-0.443 2.605-0.638 0.613-0.194 1.041-0.432 1.283-0.713 0.24-0.288 0.397-0.67 0.469-1.147 0.064-0.483 0.115-1.13 0.152-1.941v0c-0.014-0.235 0.187-0.396 0.605-0.482v0c0.385-0.079 0.673-0.053 0.864 0.078v0l1.822 8.865c-0.099 0.15-0.341 0.264-0.726 0.343v0c-0.385 0.079-0.65 0.018-0.793-0.184v0c-0.414-0.854-0.733-1.466-0.959-1.835-0.227-0.375-0.411-0.623-0.552-0.744-0.141-0.121-0.302-0.213-0.485-0.278v0c-0.182-0.092-0.569-0.104-1.162-0.037-0.584 0.072-1.224 0.173-1.918 0.303-0.696 0.123-1.348 0.246-1.955 0.371v0c-0.418 0.086-0.889 0.193-1.415 0.321-0.533 0.123-0.987 0.247-1.363 0.372-0.375 0.131-0.546 0.275-0.513 0.432v0l1.842 8.963c0.013 0.065 0.034 0.163 0.06 0.294v0c0.091 0.444 0.22 1.02 0.386 1.728 0.158 0.703 0.312 1.089 0.463 1.16v0c0.366 0.156 0.785 0.21 1.258 0.16 0.481-0.044 1.218-0.169 2.21-0.372v0l2.263-0.465c1.13-0.232 2.216-0.575 3.26-1.028 1.045-0.446 1.844-0.944 2.398-1.493v0c0.645-0.602 1.09-1.371 1.333-2.306 0.242-0.941 0.454-1.948 0.636-3.019v0c0.025-0.209 0.23-0.354 0.615-0.433v0c0.581-0.119 0.987-0.101 1.216 0.056v0c-0.186 1.379-0.396 2.845-0.628 4.397-0.232 1.552-0.324 2.86-0.275 3.925v0c-2.534 0.521-5.061 1.006-7.582 1.457-2.514 0.449-5.346 0.996-8.493 1.643v0c-1.091 0.224-2.065 0.448-2.925 0.672-0.858 0.231-1.754 0.442-2.687 0.634v0c-0.151-0.105-0.253-0.319-0.305-0.641-0.046-0.324-0.037-0.561 0.027-0.71v0c0.196-0.04 0.547-0.136 1.054-0.288 0.499-0.157 0.97-0.346 1.415-0.567 0.437-0.226 0.655-0.424 0.654-0.594v0c0.045-0.411 0.015-0.922-0.091-1.533-0.113-0.617-0.242-1.277-0.387-1.982v0l-4.127-20.081c-0.146-0.712-0.29-1.38-0.432-2.004-0.147-0.616-0.322-1.104-0.525-1.464v0c-0.073-0.189-0.351-0.285-0.835-0.288-0.489 0.005-0.993 0.034-1.514 0.087-0.525 0.06-0.886 0.111-1.082 0.15v0c-0.118-0.112-0.22-0.326-0.305-0.641-0.079-0.317-0.07-0.554 0.028-0.71v0c0.973-0.166 1.931-0.322 2.874-0.469 0.938-0.138 1.858-0.3 2.759-0.485z" fill="#0b3680" data-fill-palette-color="primary"></path><path d="M32.946 22.886v0c0 0 0.341-0.065 1.023-0.195 0.675-0.129 1.526-0.299 2.554-0.511 1.034-0.213 2.089-0.419 3.164-0.618 1.083-0.2 2.049-0.387 2.9-0.56 0.858-0.168 1.449-0.275 1.773-0.321v0c0.224-0.032 0.357 0.098 0.398 0.388v0c0.114 0.812 0.025 1.703-0.269 2.674v0c-0.741 0.138-1.731 0.328-2.97 0.57-1.239 0.235-2.594 0.49-4.063 0.765-1.469 0.275-2.929 0.548-4.378 0.819v0c-0.198 0.028-0.322-0.136-0.373-0.493v0c-0.064-0.456-0.065-0.893-0.003-1.312 0.055-0.425 0.136-0.827 0.244-1.206z" fill="#0b3680" data-fill-palette-color="primary"></path><path d="M58.637 0.607v0c1.017-0.08 1.862-0.086 2.536-0.019 0.68 0.06 1.38 0.159 2.1 0.297 0.72 0.144 1.612 0.305 2.676 0.481v0c0.29 1.228 0.547 2.498 0.771 3.812 0.217 1.314 0.368 2.298 0.453 2.953v0c0.046 0.157-0.061 0.289-0.32 0.397-0.253 0.1-0.462 0.157-0.629 0.169v0c-0.226 0.018-0.411-0.035-0.554-0.157v0c-0.106-0.58-0.356-1.249-0.749-2.007-0.387-0.759-0.895-1.478-1.524-2.157-0.628-0.673-1.359-1.214-2.194-1.623-0.841-0.409-1.767-0.573-2.777-0.494v0c-1.309 0.103-2.318 0.46-3.026 1.07-0.707 0.617-1.191 1.348-1.453 2.191-0.268 0.844-0.371 1.658-0.309 2.442v0c0.1 1.276 0.519 2.31 1.257 3.101 0.738 0.798 1.648 1.485 2.73 2.062 1.081 0.57 2.171 1.157 3.268 1.759v0c0.823 0.43 1.733 0.904 2.729 1.421 0.99 0.511 1.955 1.09 2.896 1.738 0.941 0.655 1.727 1.426 2.358 2.312 0.625 0.887 0.983 1.919 1.076 3.096v0c0.136 1.735-0.225 3.301-1.085 4.699-0.86 1.398-2.022 2.526-3.486 3.384-1.458 0.85-3.037 1.342-4.738 1.476v0c-1.602 0.126-3.161 0.068-4.678-0.174-1.517-0.242-2.873-0.43-4.067-0.563v0c-0.267-0.935-0.517-1.935-0.748-3.001-0.231-1.072-0.422-2.013-0.573-2.824-0.144-0.811-0.224-1.313-0.238-1.506v0c0.153-0.179 0.332-0.334 0.535-0.463 0.204-0.13 0.419-0.203 0.645-0.221v0c0.292-0.023 0.483 0.109 0.572 0.396v0c0.136 0.451 0.391 1.066 0.767 1.846 0.368 0.773 0.888 1.562 1.561 2.365 0.672 0.803 1.512 1.453 2.52 1.948 1.009 0.496 2.234 0.687 3.676 0.574v0c1.535-0.121 2.834-0.741 3.896-1.861 1.062-1.12 1.52-2.611 1.374-4.472v0c-0.106-1.343-0.49-2.366-1.154-3.069-0.664-0.703-1.5-1.296-2.507-1.779-1.007-0.476-2.09-0.983-3.249-1.52v0c-1.266-0.623-2.578-1.315-3.935-2.078-1.364-0.769-2.532-1.707-3.501-2.814-0.976-1.107-1.528-2.461-1.654-4.063v0c-0.133-1.695 0.199-3.209 0.997-4.542 0.798-1.327 1.892-2.389 3.28-3.187 1.381-0.804 2.873-1.269 4.475-1.395z" fill="#0b3680" data-fill-palette-color="primary"></path><path d="M79.853 0.234v0c0.947 0.006 1.873-0.015 2.781-0.063 0.9-0.041 1.84-0.076 2.82-0.103v0c0.133 0.134 0.191 0.388 0.176 0.761-0.022 0.38-0.084 0.636-0.185 0.769v0c-0.193-0.001-0.553 0.02-1.08 0.064-0.52 0.044-1.011 0.114-1.471 0.211-0.461 0.097-0.725 0.242-0.793 0.435v0c-0.102 0.326-0.161 0.752-0.178 1.279-0.023 0.527-0.037 1.1-0.04 1.72v0c-0.001 0.1-0.001 0.2-0.002 0.3-0.001 0.1-0.001 0.197-0.002 0.29v0l-0.05 8.41c0 0.033 0.016 0.06 0.049 0.08 0.033 0.014 0.05 0.02 0.05 0.02v0c1.18 0.04 2.393 0.081 3.639 0.122 1.246 0.041 2.543 0.065 3.89 0.074v0c1.147 0.007 2.383-0.002 3.71-0.028 1.327-0.025 2.53-0.051 3.611-0.078v0c0 0 0.017-0.017 0.05-0.05 0.034-0.033 0.05-0.066 0.051-0.1v0l0.05-8.36c0.004-0.72 0.002-1.4-0.008-2.04-0.016-0.64-0.086-1.157-0.21-1.551v0c-0.032-0.194-0.288-0.342-0.768-0.445-0.473-0.103-0.962-0.179-1.468-0.228-0.506-0.05-0.86-0.075-1.06-0.077v0c-0.099-0.134-0.154-0.391-0.165-0.771-0.011-0.373 0.047-0.626 0.174-0.759v0c0.986 0.039 1.946 0.085 2.88 0.138 0.933 0.059 1.859 0.091 2.779 0.096v0c0.947 0.006 1.873-0.015 2.78-0.063 0.9-0.041 1.84-0.076 2.821-0.103v0c0.133 0.134 0.191 0.388 0.176 0.761-0.022 0.38-0.084 0.636-0.185 0.769v0c-0.193-0.001-0.543 0.02-1.05 0.064-0.514 0.044-0.997 0.114-1.452 0.211-0.461 0.097-0.725 0.242-0.792 0.435v0c-0.136 0.393-0.212 0.909-0.23 1.549-0.024 0.64-0.038 1.32-0.042 2.04v0l-0.122 20.219c-0.004 0.72 0.002 1.39 0.018 2.01 0.01 0.627 0.08 1.137 0.211 1.532v0c0.066 0.16 0.328 0.309 0.787 0.444 0.453 0.136 0.935 0.229 1.448 0.279 0.506 0.05 0.856 0.075 1.05 0.076v0c0.099 0.134 0.158 0.391 0.175 0.772 0.011 0.373-0.05 0.626-0.184 0.758v0c-0.98-0.073-1.919-0.135-2.819-0.187-0.906-0.059-1.833-0.091-2.78-0.096v0c-0.92-0.006-1.847 0.016-2.78 0.063-0.934 0.041-1.894 0.092-2.881 0.153v0c-0.126-0.134-0.181-0.388-0.165-0.761 0.016-0.38 0.074-0.636 0.174-0.769v0c0.2 0.001 0.553-0.02 1.061-0.064 0.507-0.044 0.997-0.131 1.471-0.261 0.481-0.13 0.738-0.276 0.773-0.435v0c0.129-0.393 0.205-0.902 0.229-1.529 0.017-0.62 0.028-1.29 0.032-2.01v0l0.058-9.55c0-0.06-0.016-0.1-0.05-0.12-0.033-0.014-0.05-0.02-0.049-0.02v0c-1.113-0.04-2.3-0.091-3.56-0.152-1.26-0.054-2.513-0.085-3.759-0.092v0c-2.233-0.013-3.873-0.007-4.92 0.02-1.047 0.027-1.737 0.056-2.071 0.087-0.327 0.031-0.524 0.064-0.59 0.097v0c-0.034 0.033-0.05 0.056-0.051 0.07 0 0.013 0 0.02 0 0.02v0l-0.058 9.549c-0.001 0.093-0.001 0.19-0.001 0.29-0.001 0.1-0.001 0.2-0.002 0.3v0c-0.004 0.62 0.003 1.183 0.02 1.69 0.01 0.507 0.064 0.927 0.162 1.261v0c0.066 0.16 0.328 0.309 0.787 0.445 0.459 0.136 0.949 0.229 1.469 0.279 0.526 0.05 0.886 0.075 1.079 0.077v0c0.099 0.134 0.158 0.391 0.176 0.771 0.011 0.373-0.05 0.626-0.185 0.759v0c-0.98-0.073-1.919-0.135-2.819-0.187-0.906-0.059-1.833-0.091-2.779-0.097v0c-0.92-0.006-1.853 0.015-2.801 0.063-0.954 0.041-1.924 0.092-2.911 0.152v0c-0.126-0.134-0.181-0.388-0.165-0.761 0.022-0.38 0.081-0.636 0.175-0.769v0c0.2 0.001 0.563-0.02 1.09-0.063 0.52-0.044 1.021-0.131 1.502-0.261 0.474-0.13 0.728-0.276 0.762-0.435v0c0.129-0.393 0.205-0.902 0.229-1.529 0.017-0.62 0.028-1.29 0.033-2.01v0l0.121-20.219c0.004-0.72 0.002-1.4-0.007-2.041-0.016-0.64-0.086-1.157-0.211-1.551v0c-0.032-0.194-0.285-0.342-0.757-0.444-0.479-0.103-0.979-0.179-1.499-0.229-0.526-0.05-0.89-0.075-1.09-0.077v0c-0.093-0.134-0.148-0.391-0.165-0.771-0.011-0.373 0.047-0.626 0.175-0.759v0c0.986 0.039 1.956 0.085 2.909 0.138 0.946 0.059 1.879 0.091 2.799 0.096z" fill="#0b3680" data-fill-palette-color="primary"></path><path d="M126.269 2.094v0c2.122 0.222 4.08 0.822 5.874 1.801 1.787 0.985 3.325 2.275 4.612 3.871 1.28 1.602 2.231 3.434 2.854 5.497 0.629 2.057 0.82 4.275 0.57 6.656v0c-0.236 2.254-0.873 4.306-1.911 6.154-1.032 1.856-2.342 3.452-3.929 4.787-1.594 1.328-3.369 2.312-5.326 2.952-1.963 0.632-4.006 0.838-6.128 0.616v0c-2.089-0.219-4.027-0.817-5.814-1.795-1.795-0.979-3.325-2.268-4.593-3.869-1.267-1.601-2.205-3.428-2.814-5.483-0.609-2.061-0.79-4.265-0.545-6.613v0c0.235-2.248 0.863-4.307 1.883-6.177 1.02-1.871 2.318-3.474 3.892-4.811 1.574-1.337 3.343-2.321 5.306-2.954 1.957-0.64 3.98-0.85 6.069-0.632zM125.413 3.643v0c-1.79-0.187-3.363 0.05-4.72 0.713-1.357 0.669-2.501 1.612-3.433 2.828-0.939 1.222-1.678 2.613-2.216 4.172-0.545 1.558-0.901 3.137-1.069 4.735v0c-0.194 1.857-0.136 3.733 0.176 5.628 0.318 1.897 0.884 3.655 1.7 5.276 0.823 1.614 1.896 2.953 3.219 4.017 1.317 1.063 2.906 1.692 4.77 1.887v0c1.79 0.187 3.364-0.054 4.721-0.723 1.356-0.662 2.512-1.621 3.468-2.875 0.955-1.247 1.703-2.661 2.243-4.239 0.547-1.572 0.903-3.156 1.071-4.755v0c0.195-1.863 0.136-3.733-0.178-5.609-0.32-1.877-0.898-3.62-1.735-5.229-0.838-1.603-1.919-2.926-3.244-3.969-1.319-1.043-2.91-1.662-4.773-1.857z" fill="#0b3680" data-fill-palette-color="primary"></path><path d="M168.284 18.027v0c-0.373 1.904-1.13 3.484-2.273 4.742-1.151 1.263-2.585 2.137-4.304 2.622-1.711 0.48-3.597 0.519-5.657 0.116v0c-0.255-0.05-0.586-0.149-0.992-0.296-0.407-0.141-0.726-0.302-0.955-0.482v0c-0.053-0.078-0.16-0.225-0.322-0.44-0.155-0.214-0.205-0.465-0.148-0.753v0c0.038-0.196 0.133-0.263 0.284-0.199v0c0.249 0.117 0.51 0.242 0.782 0.377 0.271 0.141 0.583 0.247 0.937 0.316v0c1.897 0.371 3.615 0.045 5.153-0.978 1.537-1.017 2.536-2.7 2.996-5.049v0c0.46-2.349 0.183-4.356-0.829-6.021-1.011-1.672-2.819-2.763-5.423-3.273v0c-0.288-0.056-0.733-0.126-1.334-0.21-0.602-0.084-0.974-0.021-1.117 0.189v0c-0.187 0.262-0.355 0.739-0.504 1.43-0.154 0.683-0.3 1.378-0.439 2.084v0l-3.929 20.08c-0.138 0.707-0.258 1.369-0.359 1.988-0.106 0.611-0.131 1.122-0.076 1.534v0c0.033 0.176 0.263 0.374 0.689 0.593 0.427 0.213 0.884 0.394 1.371 0.544 0.488 0.143 0.831 0.234 1.027 0.272v0c0.066 0.149 0.077 0.385 0.035 0.71-0.05 0.323-0.149 0.538-0.3 0.644v0c-0.956-0.255-1.87-0.492-2.744-0.71-0.873-0.225-1.777-0.429-2.713-0.613v0c-0.903-0.177-1.817-0.328-2.744-0.455-0.925-0.133-1.878-0.262-2.859-0.386v0c-0.099-0.155-0.11-0.392-0.034-0.71 0.082-0.317 0.182-0.532 0.299-0.645v0c0.196 0.038 0.548 0.083 1.054 0.135 0.507 0.045 1.009 0.051 1.504 0.02 0.49-0.04 0.768-0.139 0.832-0.296v0c0.206-0.36 0.376-0.844 0.508-1.45 0.133-0.612 0.269-1.272 0.408-1.978v0l3.937-20.119c0.14-0.713 0.264-1.385 0.374-2.015 0.109-0.624 0.135-1.142 0.08-1.554v0c0.006-0.203-0.214-0.399-0.66-0.587-0.453-0.184-0.923-0.35-1.41-0.501-0.488-0.143-0.831-0.234-1.027-0.272v0c-0.066-0.149-0.077-0.385-0.034-0.71 0.05-0.323 0.149-0.538 0.299-0.644v0c0.962 0.222 1.896 0.446 2.804 0.671 0.906 0.232 1.81 0.436 2.712 0.612v0c0.936 0.183 1.943 0.363 3.023 0.541 1.086 0.179 2.322 0.404 3.709 0.675v0c1.668 0.326 3.203 0.97 4.605 1.93 1.395 0.959 2.461 2.16 3.198 3.601 0.736 1.448 0.924 3.088 0.566 4.92z" fill="#0b3680" data-fill-palette-color="primary"></path></g></svg></g></svg></g></svg></g></svg></g></svg></g><defs></defs></svg><rect width="395.52" height="96.07023226957018" fill="none" stroke="none" visibility="hidden"></rect></g></svg></g></svg>